<svg xmlns="http://www.w3.org/2000/svg" viewBox="0 0 1200 900" width="1200" height="900" role="img" aria-label="สมุนไพรสด">
  <defs>
    <linearGradient id="bg" x1="0" y1="0" x2="0" y2="1">
      <stop offset="0%" stop-color="#ecfdf5"/>
      <stop offset="100%" stop-color="#86efac"/>
    </linearGradient>
    <radialGradient id="vignette" cx="0.5" cy="0.42" r="0.72">
      <stop offset="60%" stop-color="#ffffff" stop-opacity="0"/>
      <stop offset="100%" stop-color="#000000" stop-opacity="0.07"/>
    </radialGradient>
  </defs>

  <rect width="1200" height="900" fill="url(#bg)"/>
  <g transform="translate(395.0 184.5) scale(2.05)">
    
    <path d="M100 208V70" stroke="#15803d" stroke-width="9" stroke-linecap="round" fill="none"/>
    <path d="M100 92 q-46 -6 -62 -22 q--16 30 --62 22Z" fill="#15803d"/><path d="M100 122 q46 -6 62 -22 q-16 30 -62 22Z" fill="#15803d"/><path d="M100 152 q-46 -6 -62 -22 q--16 30 --62 22Z" fill="#15803d"/><path d="M100 182 q46 -6 62 -22 q-16 30 -62 22Z" fill="#15803d"/>
    <path d="M100 70c0-22 10-38 26-46-4 22-12 36-26 46Z" fill="#15803d"/>
  </g>
  <rect width="1200" height="900" fill="url(#vignette)"/>

  <text x="600" y="826" text-anchor="middle"
        font-family="'Noto Sans Thai','Leelawadee UI',Tahoma,'Apple SD Gothic Neo',sans-serif"
        font-size="58" font-weight="700" fill="#15803d">สมุนไพรสด</text>
  <text x="600" y="868" text-anchor="middle"
        font-family="'Noto Sans Thai','Leelawadee UI',Tahoma,sans-serif"
        font-size="26" font-weight="600" fill="#15803d" opacity="0.62">KasetHub</text>
</svg>
